<svg xmlns="http://www.w3.org/2000/svg" viewBox="0 0 500 500"><g id="freepik--background-simple--inject-3"><path d="M438.63,148.3S411.4,93.79,351.27,85.71,249.16,117,204.92,137.2c-23.17,10.57-49.64,6.46-74.24,11.58C52,165.14,22.4,267.66,55.16,326c28.36,50.47,78.28,76.72,154.29,82.77s129.34,13.13,197.41-36.34S470.39,220,438.63,148.3Z" style="fill:#BA68C8"></path><path d="M438.63,148.3S411.4,93.79,351.27,85.71,249.16,117,204.92,137.2c-23.17,10.57-49.64,6.46-74.24,11.58C52,165.14,22.4,267.66,55.16,326c28.36,50.47,78.28,76.72,154.29,82.77s129.34,13.13,197.41-36.34S470.39,220,438.63,148.3Z" style="fill:#fff;opacity:0.7000000000000001"></path></g><g id="freepik--Plants--inject-3"><path d="M205.12,312.73c-.05,0,.64-3.39.7-3.6.79-2.41,3.72-6.63,6.57-6.62a3.37,3.37,0,0,1,3.24,3.83c-.21,2-2,3.7-3.63,4.68C210.1,312.18,205.13,312.73,205.12,312.73Z" style="fill:#BA68C8"></path><path d="M199.61,289.93c2.68,1,4,5.91,3.93,8.46,0,.21-.51,3.64-.56,3.61l-.06,0c.22.78.44,1.62.67,2.54.4,1.71.84,3.64,1.18,5.77a59,59,0,0,1,.75,6.95,44,44,0,0,1-.26,7.8.29.29,0,0,1,0,.09c.35-.75,1.41-2.84,1.5-3,1.4-2.12,5.34-5.41,8.09-4.65a3.37,3.37,0,0,1,2.11,4.54c-.73,1.88-2.91,3.05-4.74,3.57-2,.58-6.65-.11-7-.17a59.54,59.54,0,0,1-1.69,7.78c-.42,1.49-.89,3-1.38,4.46.32-.65.62-1.22.67-1.29,1.39-2.13,5.34-5.42,8.08-4.66a3.37,3.37,0,0,1,2.11,4.55c-.72,1.87-2.91,3-4.73,3.56s-5.78,0-6.82-.13c-.19.56-.38,1.13-.58,1.7-.94,2.72-1.89,5.43-2.74,8.11-.3.95-.56,1.89-.82,2.84.29-.58.53-1.06.58-1.12,1.39-2.13,5.34-5.42,8.08-4.66a3.36,3.36,0,0,1,2.11,4.55c-.72,1.87-2.9,3-4.73,3.56s-5.4.06-6.63-.11c-.24,1-.48,1.95-.68,2.9-.11.66-.27,1.28-.35,1.94s-.18,1.31-.27,1.95c-.13,1.25-.27,2.53-.36,3.75-.08.84-.13,1.65-.18,2.46.28-.94.89-2.78.95-2.93a13.07,13.07,0,0,1,4.36-5,3.21,3.21,0,0,1,.37-.65,3.37,3.37,0,0,1,5-.77c2.16,1.86,1.62,7,.63,9.3-.06.14-.86,1.57-1.38,2.46l1.15-1.43c.79-1,1.61-1.91,2.49-2.93l1.33-1.45c.44-.49,1-.95,1.44-1.44,1.14-1.1,2.35-2.16,3.59-3.2-.85-.69-3.82-3.2-4.67-4.91s-1.47-4.09-.58-5.9a3.37,3.37,0,0,1,4.78-1.51c2.41,1.51,2.66,6.64,2,9.1,0,.16-.69,1.87-1.06,2.81.75-.62,1.5-1.24,2.28-1.84,2.25-1.74,4.58-3.43,6.9-5.13l2.11-1.57c-.3-.24-3.89-3.15-4.85-5.06-.85-1.7-1.46-4.1-.57-5.9a3.37,3.37,0,0,1,4.78-1.51c2.41,1.51,2.65,6.64,2,9.1,0,.19-1,2.66-1.25,3.27,1.55-1.15,3.09-2.32,4.56-3.53a58.8,58.8,0,0,0,5.63-5.24c-.14-.11-3.91-3.13-4.89-5.08-.85-1.7-1.46-4.1-.57-5.9a3.37,3.37,0,0,1,4.78-1.52c2.41,1.52,2.65,6.64,2,9.11,0,.16-.76,2-1.11,2.93l.13.09a43.49,43.49,0,0,0,4.63-6.21c.76-1.2,1.41-2.39,2-3.57-.76-.49-4.2-2.77-5.28-4.43s-1.9-3.91-1.22-5.8a3.38,3.38,0,0,1,4.59-2c2.56,1.24,3.36,6.31,3,8.83,0,.14-.36,1.51-.63,2.5.27-.53.56-1.08.81-1.6.93-1.93,1.67-3.77,2.31-5.4.36-.93.66-1.77.94-2.57-.5-.87-2.44-4.4-2.63-6.33s.11-4.35,1.59-5.71a3.38,3.38,0,0,1,5,.31c1.7,2.28.08,7.15-1.39,9.23-.13.17-2.44,2.75-2.47,2.7l0-.05c-.25.77-.53,1.59-.85,2.49-.6,1.64-1.3,3.5-2.2,5.46a59.49,59.49,0,0,1-3.2,6.21,44.06,44.06,0,0,1-4.52,6.37l-.07.06c.71-.43,2.74-1.59,2.9-1.66,2.34-1,7.44-1.57,9.31.57a3.37,3.37,0,0,1-.74,5c-1.64,1.16-4.11.94-5.92.36-2-.65-5.49-3.76-5.76-4a61.24,61.24,0,0,1-5.7,5.55c-1.17,1-2.38,2-3.61,3,.62-.36,1.19-.68,1.27-.71,2.34-1,7.44-1.57,9.31.57a3.37,3.37,0,0,1-.75,5c-1.64,1.16-4.1.93-5.91.36s-4.83-3.18-5.61-3.87c-.48.36-.95.73-1.42,1.1-2.29,1.75-4.57,3.48-6.77,5.26-.77.62-1.51,1.26-2.25,1.9.56-.32,1-.58,1.11-.61,2.33-1,7.44-1.57,9.31.58a3.36,3.36,0,0,1-.75,4.95c-1.64,1.16-4.1.94-5.91.36s-4.54-2.92-5.47-3.75c-.74.68-1.48,1.36-2.17,2.05-.46.49-.93.92-1.36,1.43l-1.3,1.47c-.8,1-1.62,2-2.37,2.92-.53.67-1,1.31-1.51,2,.76-.63,2.27-1.83,2.41-1.92,2.16-1.34,7.12-2.68,9.29-.84a3.36,3.36,0,0,1,0,5c-1.44,1.4-3.91,1.55-5.79,1.26-2.06-.33-5.8-2.76-6.27-3.07-.81,1.08-1.59,2.13-2.32,3.13-2.51,3.48-4.48,6.47-5.82,8.58l-.14.22-1.74-.85.28-.41c1.4-2.11,3.45-5.08,6.07-8.54.82-1.09,1.72-2.25,2.66-3.42a37.2,37.2,0,0,1-2.7-3.35c-2,.79-6.17.82-6.71.82-.08,1.34-.16,2.65-.21,3.89-.18,4.29-.16,7.87-.12,10.37,0,.1,0,.19,0,.29l-1.92-.93c0-2.48.1-5.84.35-9.82.08-1.36.2-2.82.34-4.32-.54-.13-4.87-1.25-6.5-2.55-1.48-1.19-3-3.11-3-5.12a3.37,3.37,0,0,1,3.7-3.38c2.83.37,5.19,4.92,5.66,7.42,0,.15.15,1.78.2,2.81.06-.61.11-1.2.18-1.83.12-1.24.29-2.48.45-3.82.11-.64.21-1.28.32-1.94s.27-1.32.4-2c.35-1.55.77-3.1,1.23-4.65-1.09-.11-4.95-.57-6.6-1.52s-3.48-2.61-3.74-4.6a3.38,3.38,0,0,1,3.16-3.9c2.84-.07,5.87,4.07,6.71,6.47.05.15.46,1.94.67,2.93.28-.93.56-1.86.88-2.79.91-2.7,1.92-5.39,2.92-8.09.31-.82.6-1.65.9-2.48-.39,0-5-.47-6.84-1.54-1.65-.94-3.48-2.61-3.73-4.6a3.37,3.37,0,0,1,3.15-3.9c2.85-.07,5.88,4.08,6.71,6.48.07.18.65,2.75.77,3.41.65-1.81,1.29-3.63,1.85-5.45a59.67,59.67,0,0,0,1.8-7.48c-.18,0-5-.46-6.88-1.55-1.65-.94-3.48-2.61-3.73-4.6a3.37,3.37,0,0,1,3.15-3.9c2.85-.07,5.88,4.08,6.71,6.48.06.15.51,2.11.7,3.05h.16a42.7,42.7,0,0,0,.43-7.73c0-1.42-.14-2.78-.27-4.1-.91,0-5,0-6.85-.78s-3.74-2.21-4.21-4.16a3.37,3.37,0,0,1,2.7-4.23c2.82-.38,6.29,3.41,7.38,5.7.06.13.53,1.46.86,2.44-.07-.6-.14-1.21-.21-1.78-.29-2.13-.69-4.07-1.05-5.78-.22-1-.43-1.84-.64-2.66-.89-.45-4.46-2.32-5.68-3.83s-2.31-3.69-1.82-5.64A3.36,3.36,0,0,1,199.61,289.93Z" style="fill:#BA68C8"></path><path d="M251.07,333.8c-2.22-.08-6.67-2.37-6.67-2.37s2.39-2.47,2.56-2.61c2-1.59,6.76-3.48,9.13-1.9a3.37,3.37,0,0,1,.59,5C255.41,333.45,253,333.88,251.07,333.8Z" style="fill:#BA68C8"></path><g style="opacity:0.5"><path d="M205.12,312.73c-.05,0,.64-3.39.7-3.6.79-2.41,3.72-6.63,6.57-6.62a3.37,3.37,0,0,1,3.24,3.83c-.21,2-2,3.7-3.63,4.68C210.1,312.18,205.13,312.73,205.12,312.73Z" style="fill:#fff"></path><path d="M199.61,289.93c2.68,1,4,5.91,3.93,8.46,0,.21-.51,3.64-.56,3.61l-.06,0c.22.78.44,1.62.67,2.54.4,1.71.84,3.64,1.18,5.77a59,59,0,0,1,.75,6.95,44,44,0,0,1-.26,7.8.29.29,0,0,1,0,.09c.35-.75,1.41-2.84,1.5-3,1.4-2.12,5.34-5.41,8.09-4.65a3.37,3.37,0,0,1,2.11,4.54c-.73,1.88-2.91,3.05-4.74,3.57-2,.58-6.65-.11-7-.17a59.54,59.54,0,0,1-1.69,7.78c-.42,1.49-.89,3-1.38,4.46.32-.65.62-1.22.67-1.29,1.39-2.13,5.34-5.42,8.08-4.66a3.37,3.37,0,0,1,2.11,4.55c-.72,1.87-2.91,3-4.73,3.56s-5.78,0-6.82-.13c-.19.56-.38,1.13-.58,1.7-.94,2.72-1.89,5.43-2.74,8.11-.3.95-.56,1.89-.82,2.84.29-.58.53-1.06.58-1.12,1.39-2.13,5.34-5.42,8.08-4.66a3.36,3.36,0,0,1,2.11,4.55c-.72,1.87-2.9,3-4.73,3.56s-5.4.06-6.63-.11c-.24,1-.48,1.95-.68,2.9-.11.66-.27,1.28-.35,1.94s-.18,1.31-.27,1.95c-.13,1.25-.27,2.53-.36,3.75-.08.84-.13,1.65-.18,2.46.28-.94.89-2.78.95-2.93a13.07,13.07,0,0,1,4.36-5,3.21,3.21,0,0,1,.37-.65,3.37,3.37,0,0,1,5-.77c2.16,1.86,1.62,7,.63,9.3-.06.14-.86,1.57-1.38,2.46l1.15-1.43c.79-1,1.61-1.91,2.49-2.93l1.33-1.45c.44-.49,1-.95,1.44-1.44,1.14-1.1,2.35-2.16,3.59-3.2-.85-.69-3.82-3.2-4.67-4.91s-1.47-4.09-.58-5.9a3.37,3.37,0,0,1,4.78-1.51c2.41,1.51,2.66,6.64,2,9.1,0,.16-.69,1.87-1.06,2.81.75-.62,1.5-1.24,2.28-1.84,2.25-1.74,4.58-3.43,6.9-5.13l2.11-1.57c-.3-.24-3.89-3.15-4.85-5.06-.85-1.7-1.46-4.1-.57-5.9a3.37,3.37,0,0,1,4.78-1.51c2.41,1.51,2.65,6.64,2,9.1,0,.19-1,2.66-1.25,3.27,1.55-1.15,3.09-2.32,4.56-3.53a58.8,58.8,0,0,0,5.63-5.24c-.14-.11-3.91-3.13-4.89-5.08-.85-1.7-1.46-4.1-.57-5.9a3.37,3.37,0,0,1,4.78-1.52c2.41,1.52,2.65,6.64,2,9.11,0,.16-.76,2-1.11,2.93l.13.09a43.49,43.49,0,0,0,4.63-6.21c.76-1.2,1.41-2.39,2-3.57-.76-.49-4.2-2.77-5.28-4.43s-1.9-3.91-1.22-5.8a3.38,3.38,0,0,1,4.59-2c2.56,1.24,3.36,6.31,3,8.83,0,.14-.36,1.51-.63,2.5.27-.53.56-1.08.81-1.6.93-1.93,1.67-3.77,2.31-5.4.36-.93.66-1.77.94-2.57-.5-.87-2.44-4.4-2.63-6.33s.11-4.35,1.59-5.71a3.38,3.38,0,0,1,5,.31c1.7,2.28.08,7.15-1.39,9.23-.13.17-2.44,2.75-2.47,2.7l0-.05c-.25.77-.53,1.59-.85,2.49-.6,1.64-1.3,3.5-2.2,5.46a59.49,59.49,0,0,1-3.2,6.21,44.06,44.06,0,0,1-4.52,6.37l-.07.06c.71-.43,2.74-1.59,2.9-1.66,2.34-1,7.44-1.57,9.31.57a3.37,3.37,0,0,1-.74,5c-1.64,1.16-4.11.94-5.92.36-2-.65-5.49-3.76-5.76-4a61.24,61.24,0,0,1-5.7,5.55c-1.17,1-2.38,2-3.61,3,.62-.36,1.19-.68,1.27-.71,2.34-1,7.44-1.57,9.31.57a3.37,3.37,0,0,1-.75,5c-1.64,1.16-4.1.93-5.91.36s-4.83-3.18-5.61-3.87c-.48.36-.95.73-1.42,1.1-2.29,1.75-4.57,3.48-6.77,5.26-.77.62-1.51,1.26-2.25,1.9.56-.32,1-.58,1.11-.61,2.33-1,7.44-1.57,9.31.58a3.36,3.36,0,0,1-.75,4.95c-1.64,1.16-4.1.94-5.91.36s-4.54-2.92-5.47-3.75c-.74.68-1.48,1.36-2.17,2.05-.46.49-.93.92-1.36,1.43l-1.3,1.47c-.8,1-1.62,2-2.37,2.92-.53.67-1,1.31-1.51,2,.76-.63,2.27-1.83,2.41-1.92,2.16-1.34,7.12-2.68,9.29-.84a3.36,3.36,0,0,1,0,5c-1.44,1.4-3.91,1.55-5.79,1.26-2.06-.33-5.8-2.76-6.27-3.07-.81,1.08-1.59,2.13-2.32,3.13-2.51,3.48-4.48,6.47-5.82,8.58l-.14.22-1.74-.85.28-.41c1.4-2.11,3.45-5.08,6.07-8.54.82-1.09,1.72-2.25,2.66-3.42a37.2,37.2,0,0,1-2.7-3.35c-2,.79-6.17.82-6.71.82-.08,1.34-.16,2.65-.21,3.89-.18,4.29-.16,7.87-.12,10.37,0,.1,0,.19,0,.29l-1.92-.93c0-2.48.1-5.84.35-9.82.08-1.36.2-2.82.34-4.32-.54-.13-4.87-1.25-6.5-2.55-1.48-1.19-3-3.11-3-5.12a3.37,3.37,0,0,1,3.7-3.38c2.83.37,5.19,4.92,5.66,7.42,0,.15.15,1.78.2,2.81.06-.61.11-1.2.18-1.83.12-1.24.29-2.48.45-3.82.11-.64.21-1.28.32-1.94s.27-1.32.4-2c.35-1.55.77-3.1,1.23-4.65-1.09-.11-4.95-.57-6.6-1.52s-3.48-2.61-3.74-4.6a3.38,3.38,0,0,1,3.16-3.9c2.84-.07,5.87,4.07,6.71,6.47.05.15.46,1.94.67,2.93.28-.93.56-1.86.88-2.79.91-2.7,1.92-5.39,2.92-8.09.31-.82.6-1.65.9-2.48-.39,0-5-.47-6.84-1.54-1.65-.94-3.48-2.61-3.73-4.6a3.37,3.37,0,0,1,3.15-3.9c2.85-.07,5.88,4.08,6.71,6.48.07.18.65,2.75.77,3.41.65-1.81,1.29-3.63,1.85-5.45a59.67,59.67,0,0,0,1.8-7.48c-.18,0-5-.46-6.88-1.55-1.65-.94-3.48-2.61-3.73-4.6a3.37,3.37,0,0,1,3.15-3.9c2.85-.07,5.88,4.08,6.71,6.48.06.15.51,2.11.7,3.05h.16a42.7,42.7,0,0,0,.43-7.73c0-1.42-.14-2.78-.27-4.1-.91,0-5,0-6.85-.78s-3.74-2.21-4.21-4.16a3.37,3.37,0,0,1,2.7-4.23c2.82-.38,6.29,3.41,7.38,5.7.06.13.53,1.46.86,2.44-.07-.6-.14-1.21-.21-1.78-.29-2.13-.69-4.07-1.05-5.78-.22-1-.43-1.84-.64-2.66-.89-.45-4.46-2.32-5.68-3.83s-2.31-3.69-1.82-5.64A3.36,3.36,0,0,1,199.61,289.93Z" style="fill:#fff"></path><path d="M251.07,333.8c-2.22-.08-6.67-2.37-6.67-2.37s2.39-2.47,2.56-2.61c2-1.59,6.76-3.48,9.13-1.9a3.37,3.37,0,0,1,.59,5C255.41,333.45,253,333.88,251.07,333.8Z" style="fill:#fff"></path></g><path d="M225.1,389.51S211.6,357,204,358.38s13,51.88,13,51.88-23.75-44.8-39.95-44.8,5.94,49.51,26.45,66c0,0-32.38-34.9-51.28-27.35S190,447,190,447s-32.93-10.37-29.15-2.36,14,9.43,14,9.43L137.65,456H267.2l-29.15-2.83s30.23-15.09,22.14-21.22S234.27,439,234.27,439s30.77-33.95,24.84-46.68-32.39,23.1-32.39,23.1S248.31,369.7,244,361.68,225.1,389.51,225.1,389.51Z" style="fill:#BA68C8"></path><path d="M225.1,389.51S211.6,357,204,358.38s13,51.88,13,51.88-23.75-44.8-39.95-44.8,5.94,49.51,26.45,66c0,0-32.38-34.9-51.28-27.35S190,447,190,447s-32.93-10.37-29.15-2.36,14,9.43,14,9.43L137.65,456H267.2l-29.15-2.83s30.23-15.09,22.14-21.22S234.27,439,234.27,439s30.77-33.95,24.84-46.68-32.39,23.1-32.39,23.1S248.31,369.7,244,361.68,225.1,389.51,225.1,389.51Z" style="fill:#fff;opacity:0.4"></path><path d="M229.42,391.22c-11.88,35.09-11.88,59.92-11.88,59.92s14,.54,28.61-10.25" style="fill:none;stroke:#787878;stroke-linecap:round;stroke-linejoin:round"></path><path d="M223.48,410.12a210,210,0,0,0-9.72-30.77" style="fill:none;stroke:#787878;stroke-linecap:round;stroke-linejoin:round"></path><path d="M188.39,389.6l30.23,44.81s20.51-17.28,27.53-27" style="fill:none;stroke:#787878;stroke-linecap:round;stroke-linejoin:round"></path><path d="M218.08,445.2s-31.85-15.11-44.81-23.75" style="fill:none;stroke:#787878;stroke-linecap:round;stroke-linejoin:round"></path></g><g id="freepik--Clouds--inject-3"><path d="M154,135.84c-4.89-2.67-7.12-.44-8.9-2.67s4.89-8-8.44-13.78c0,0-.89-12.45-19.12-12.89S104.23,119,99.34,122.06s-6.22-1.78-11.11,1.33-2.67,9.34-6.67,10.23-9.33-4-14.22-.89-4.9,5.78-7.12,5.78-6.67-1.78-9.33,0-5.78,4-5.78,4H157.58S158.92,138.51,154,135.84Z" style="fill:#BA68C8"></path><g style="opacity:0.5"><path d="M154,135.84c-4.89-2.67-7.12-.44-8.9-2.67s4.89-8-8.44-13.78c0,0-.89-12.45-19.12-12.89S104.23,119,99.34,122.06s-6.22-1.78-11.11,1.33-2.67,9.34-6.67,10.23-9.33-4-14.22-.89-4.9,5.78-7.12,5.78-6.67-1.78-9.33,0-5.78,4-5.78,4H157.58S158.92,138.51,154,135.84Z" style="fill:#fff"></path></g><path d="M188.28,76.06c-3-1.64-4.36-.28-5.45-1.64s3-4.89-5.16-8.43c0,0-.55-7.61-11.7-7.89s-8.16,7.62-11.15,9.52-3.81-1.08-6.81.82-1.63,5.71-4.08,6.26-5.71-2.45-8.7-.55-3,3.54-4.35,3.54-4.08-1.09-5.72,0-3.53,2.45-3.53,2.45h68.82S191.27,77.69,188.28,76.06Z" style="fill:#BA68C8"></path><g style="opacity:0.5"><path d="M188.28,76.06c-3-1.64-4.36-.28-5.45-1.64s3-4.89-5.16-8.43c0,0-.55-7.61-11.7-7.89s-8.16,7.62-11.15,9.52-3.81-1.08-6.81.82-1.63,5.71-4.08,6.26-5.71-2.45-8.7-.55-3,3.54-4.35,3.54-4.08-1.09-5.72,0-3.53,2.45-3.53,2.45h68.82S191.27,77.69,188.28,76.06Z" style="fill:#fff"></path></g><path d="M451.28,105.06c-3-1.64-4.36-.28-5.45-1.64s3-4.89-5.16-8.43c0,0-.55-7.61-11.7-7.89s-8.16,7.62-11.15,9.52-3.81-1.08-6.81.82-1.63,5.71-4.08,6.26-5.71-2.45-8.7-.55-3,3.54-4.35,3.54-4.08-1.09-5.72,0-3.53,2.45-3.53,2.45h68.82S454.27,106.69,451.28,105.06Z" style="fill:#BA68C8"></path><g style="opacity:0.5"><path d="M451.28,105.06c-3-1.64-4.36-.28-5.45-1.64s3-4.89-5.16-8.43c0,0-.55-7.61-11.7-7.89s-8.16,7.62-11.15,9.52-3.81-1.08-6.81.82-1.63,5.71-4.08,6.26-5.71-2.45-8.7-.55-3,3.54-4.35,3.54-4.08-1.09-5.72,0-3.53,2.45-3.53,2.45h68.82S454.27,106.69,451.28,105.06Z" style="fill:#fff"></path></g></g><g id="freepik--Trees--inject-3"><path d="M373.45,244.78s29.63,2.94,44.65,21.3c0,0,15.87-21.27,44.36-20.84a57.59,57.59,0,1,0-89-.41Z" style="fill:#BA68C8"></path><path d="M373.45,244.78s29.63,2.94,44.65,21.3c0,0,15.87-21.27,44.36-20.84a57.59,57.59,0,1,0-89-.41Z" style="fill:#fff;opacity:0.5"></path><polygon points="417.12 154.97 416.12 455.55 421.12 455.55 417.12 154.97" style="fill:#828282"></polygon><path d="M418.62,260.48s10-18,28-23.5c0,0-19,4.5-28.51,20Z" style="fill:#828282"></path><path d="M417.53,210s11.09-18.49,29.1-24c0,0-19.6,5.64-29.1,21.14Z" style="fill:#828282"></path><path d="M417.92,236.26s10.7-19.28,28.71-24.78c0,0-19.47,5.39-29,20.89Z" style="fill:#828282"></path><path d="M417.14,222.48s-9.65-18-27-23.51c0,0,18.34,4.5,27.51,20Z" style="fill:#828282"></path><path d="M417.14,247.48s-9.65-18-27-23.5c0,0,18.34,4.5,27.51,20Z" style="fill:#828282"></path><path d="M203.4,201s51.74,5.12,78,37.2c0,0,27.71-37.16,77.48-36.4a100.58,100.58,0,1,0-155.47-.71Z" style="fill:#BA68C8"></path><path d="M203.4,201s51.74,5.12,78,37.2c0,0,27.71-37.16,77.48-36.4a100.58,100.58,0,1,0-155.47-.71Z" style="fill:#fff;opacity:0.30000000000000004"></path><polygon points="279.66 44.09 277.91 455.55 286.65 455.55 279.66 44.09" style="fill:#828282"></polygon><path d="M282.28,228.38s17.47-31.44,48.91-41c0,0-33.19,7.86-49.78,34.94Z" style="fill:#828282"></path><path d="M281,141s18.78-33.19,50.22-42.8c0,0-33.5,9.12-50.09,36.19Z" style="fill:#828282"></path><path d="M281.49,185s18.26-32.57,49.7-42.17c0,0-33.19,7.86-49.78,34.93Z" style="fill:#828282"></path><path d="M279.69,162s-16.86-31.44-47.2-41c0,0,32,7.86,48,34.94Z" style="fill:#828282"></path><path d="M279.69,205.67s-16.86-31.44-47.2-41c0,0,32,7.86,48,34.94Z" style="fill:#828282"></path></g><g id="freepik--character-2--inject-3"><path d="M380.33,436.84s4.43,8,8.79,9.43c9.47,3.16,11.61,7.56,10.68,9.73H362.41s-1.24.3-1.24-4,3.4-14.53,3.4-14.53Z" style="fill:#fff;stroke:#263238;stroke-linecap:round;stroke-linejoin:round"></path><path d="M390.17,447s-8.06-1.4-14.72,1.76" style="fill:none;stroke:#263238;stroke-linecap:round;stroke-linejoin:round"></path><path d="M362.41,456H399.8c.51-1.18,1.43-2.17-.51-3.42l-38.11-.09C361.28,456.27,362.41,456,362.41,456Z" style="fill:#fff;stroke:#263238;stroke-linecap:round;stroke-linejoin:round"></path><path d="M331.3,436.84s-4.13,9.25-8.45,10.84c-10.52,3.85-11.94,6.15-11,8.32h37.39s1.23.3,1.23-4-3.4-14.53-3.4-14.53Z" style="fill:#fff;stroke:#263238;stroke-linecap:round;stroke-linejoin:round"></path><path d="M322.85,447.68a34,34,0,0,1,17.53.35" style="fill:none;stroke:#263238;stroke-linecap:round;stroke-linejoin:round"></path><path d="M313.39,452.58c-1.95,1.25-2.06,2.24-1.55,3.42h37.39s1.13.27,1.22-3.51Z" style="fill:#fff;stroke:#263238;stroke-linecap:round;stroke-linejoin:round"></path><path d="M318,267.19s-6.49,24.41-6.18,32.14,6.48,30,7.1,40.17-.92,30.59.62,46S331,436.84,331,436.84l16.07.61s6.49-31.82,6.49-46.66S356,328.06,356,328.06s5.88,51.3,5.26,67.37,3.29,42,3.29,42l15.76-.61s6.59-30,8.76-45.12,3.4-30,3.71-30.9,5.87-33.37,4.63-47.28-1.85-24.41-1.85-26.57V270.9c0-3.09-9.27,7.1-26,8.34s-28.43.93-38.94-4.94S318,267.19,318,267.19Z" style="fill:#263238;stroke:#263238;stroke-linecap:round;stroke-linejoin:round"></path><polyline points="356.02 328.06 358.19 315.7 368.38 312" style="fill:none;stroke:#737373;stroke-linecap:round;stroke-linejoin:round"></polyline><line x1="360.35" y1="285.11" x2="360.66" y2="303.65" style="fill:none;stroke:#737373;stroke-linecap:round;stroke-linejoin:round"></line><line x1="363.13" y1="286.04" x2="364.37" y2="300.87" style="fill:none;stroke:#737373;stroke-linecap:round;stroke-linejoin:round"></line><line x1="331.92" y1="303.03" x2="336.87" y2="285.42" style="fill:none;stroke:#737373;stroke-linecap:round;stroke-linejoin:round"></line><line x1="339.03" y1="286.04" x2="339.34" y2="303.96" style="fill:none;stroke:#737373;stroke-linecap:round;stroke-linejoin:round"></line><line x1="379.82" y1="300.25" x2="383.22" y2="286.04" style="fill:none;stroke:#737373;stroke-linecap:round;stroke-linejoin:round"></line><line x1="385.69" y1="283.88" x2="386" y2="302.42" style="fill:none;stroke:#737373;stroke-linecap:round;stroke-linejoin:round"></line><path d="M352.93,182.83s-18.54,0-28.73,4.63S321.11,214,319.25,227s-6.49,30.9-2.78,42.64,17.92,16.69,43.88,15.45,31.52-3.71,35.54-13-1.24-27.5-1.55-37.08,0-21,.31-34.61-8-17-17.3-17S352.93,182.83,352.93,182.83Z" style="fill:#BA68C8;stroke:#263238;stroke-linecap:round;stroke-linejoin:round"></path><path d="M341,239.52s23.73-1.29,39.77,3.84" style="fill:none;stroke:#263238;stroke-linecap:round;stroke-linejoin:round"></path><path d="M351.24,231.82s18,2.56,23.74,7.05" style="fill:none;stroke:#263238;stroke-linecap:round;stroke-linejoin:round"></path><path d="M391.25,204.46s6.32,23.65,10,27.36,5.42,3.85,9.44,1.07,14.06-1.5,13.13-10.46-10.35-22.3-14.37-27.55-21.63-10.81-25.65-10.81" style="fill:#BA68C8;stroke:#263238;stroke-linecap:round;stroke-linejoin:round"></path><path d="M352,180.05s-4.95,2.16-5.26,4.94-3.09,19.16-1.23,19.47,13.59-7.73,17-7.11,13.91,10.82,16.07,7.42-3.09-18.23-6.18-22.25S359.42,175.1,352,180.05Z" style="fill:#fff;stroke:#263238;stroke-linecap:round;stroke-linejoin:round"></path><path d="M376.11,147.91s5.56-11.74,4-20.08S366.53,113,355.1,113s-19.16,8.35-19.47,12.36,4.33,6.49,4.33,6.49,6.79,3.4,9.88,3.4,1.86.93,3.4,4.33,7.11,4.63,8,6.8,1.23,7.1,5.56,8.34S376.11,147.91,376.11,147.91Z" style="fill:#263238;stroke:#263238;stroke-linecap:round;stroke-linejoin:round"></path><path d="M349.84,178.81A78.68,78.68,0,0,0,352.93,193c2.17,6.18,6.8,14.52,10.2,12.67s9-30.91,7.42-46.36c0,0-.93-2.47-2.17-.3s-7.41,12.05-12.05,14.83S349.53,176,349.84,178.81Z" style="fill:#ccc;stroke:#263238;stroke-linecap:round;stroke-linejoin:round"></path><path d="M338.1,128.75s-4.33,10.82-3.4,16.38-.62,10.82,2.17,17.3,2.78,15.46,7.41,17,18.23-3.71,22.56-10.2,3.71-9.89,3.71-9.89,7.1-1.54,7.1-8.65-3.7-5.56-5.56-4.32-2.47,4.32-4.32,4.63-2.48-3.09-2.48-3.09-3.39-5.87-5.87-7.11-3.4-4-1.85-7.41,3.09-5.56-3.09-5.56S344,134.31,338.1,128.75Z" style="fill:#ccc;stroke:#263238;stroke-linecap:round;stroke-linejoin:round"></path><path d="M343.15,160.92s-5.07.89-5.67,2.68,3.6,3.37,6.29,3.07,8.67-3.61,9.56-6.6S343.15,160.92,343.15,160.92Z" style="fill:#263238;stroke:#263238;stroke-linecap:round;stroke-linejoin:round"></path><path d="M375.61,150.17s-.33-1.81-2.31-.33a5,5,0,0,0-2.15,3.14s2.48-.5,2.15.82a1.9,1.9,0,0,1-1.82,1.32" style="fill:none;stroke:#263238;stroke-linecap:round;stroke-linejoin:round"></path><path d="M340.57,147.91s-6.49,9.89-3.4,11.74,7.11,0,7.11-1.23" style="fill:none;stroke:#263238;stroke-linecap:round;stroke-linejoin:round"></path><path d="M354.48,159.34c-2.08,7.55-12.52,8.14-12.52,8.14a1.11,1.11,0,0,0,.32,1.83,7.78,7.78,0,0,0,3.47.83" style="fill:none;stroke:#263238;stroke-linecap:round;stroke-linejoin:round"></path><path d="M346.75,149.15s3.4-.93,5.57.92" style="fill:none;stroke:#263238;stroke-linecap:round;stroke-linejoin:round"></path><path d="M338.41,149.15a3,3,0,0,0-2.47.62" style="fill:none;stroke:#263238;stroke-linecap:round;stroke-linejoin:round"></path><path d="M345.83,143.28s3.7-2.79,8.65.92" style="fill:none;stroke:#263238;stroke-linecap:round;stroke-linejoin:round;stroke-width:2px"></path><path d="M339.65,143.89s-2.78-1.23-3.71,1.55" style="fill:none;stroke:#263238;stroke-linecap:round;stroke-linejoin:round;stroke-width:2px"></path><path d="M325.74,186.85s-8.65,1.23-13.6,8-20.5,32.59-25.14,42.79c-6.3,13.87,16.14,34.7,23.91,45.28l5.87-6.18s-3.63-12.39-4.15-18.55c-.8-9.65-5-15.45-3.75-18.23s13.82-13.78,14.74-19" style="fill:#BA68C8;stroke:#263238;stroke-linecap:round;stroke-linejoin:round"></path><polygon points="316.78 276.77 322.65 281.71 315.54 294.38 310.91 282.95 316.78 276.77" style="fill:#ccc;stroke:#263238;stroke-linecap:round;stroke-linejoin:round"></polygon><path d="M352.62,209.1s-3.7-2.17-9-9.89-10.19-15.14-14.52-16.38-7.22-.15-6.18,1.24c1.85,2.47,3.71,1.23,5.56,3.09a21,21,0,0,1,3.4,5.56s-4.61-1-8.32-1.66-6.23.85-6.23,2.39,0,1.12,3.12,1.12,10.19,3.71,10.19,3.71-8.34,0-11.12.93-2.47,3.09,0,3.09,4.64-.31,6.49,0,4.94.92,4.94.92-7.72,2.48-9.88,4.64-.18,2.11,1.05,2.11,10.69-3,10.69-3,4.63,3.4,7.41,4.95,7.11,1.54,7.11,1.54l3.4,3.09Z" style="fill:#ccc;stroke:#263238;stroke-linecap:round;stroke-linejoin:round"></path><path d="M423.85,222.43c.62,6.18-.62,12.36-5.25,14.52s-25.8.88-39.71-5.61-28.12-14.83-28.12-14.83l1.85-7.41s40.95,4.06,45.58,3.75,15.15,1.54,19.78,4.32" style="fill:#BA68C8;stroke:#263238;stroke-linecap:round;stroke-linejoin:round"></path></g><g id="freepik--character-1--inject-3"><path d="M125.89,291.45l2.47,20.48s4.55,32.59,15.5,53.07a207.43,207.43,0,0,0,28.19,40.47c5.65,6.35,26.75,32.87,26.75,32.87S209,438,213.27,433.4c0,0-15.35-31.07-21-45.9s-9.22-17.91-9.22-17.91,1.81-40,2.16-45.3,8.48-13.91,8.48-25.57-37.79-8.33-48-9.74S125.89,291.45,125.89,291.45Z" style="fill:#263238;stroke:#263238;stroke-linecap:round;stroke-linejoin:round"></path><path d="M145,308.75s-7.77,1.77-10.24,7.77-13.42,37.78-14.83,45.55.7,38.49.7,51.56-.35,24.36-.35,24.36L134,444s10.24-33.89,11.65-45.19,2.83-30,2.83-30l30.37-40.25a35.75,35.75,0,0,0,10.94-12c4.24-7.77,3.89-17.8,3.89-17.8" style="fill:#263238;stroke:#263238;stroke-linecap:round;stroke-linejoin:round"></path><line x1="152.09" y1="363.03" x2="178.86" y2="328.53" style="fill:none;stroke:#737373;stroke-linecap:round;stroke-linejoin:round"></line><path d="M120.24,438s-15.89,8.12-20.13,9.89-5.65,3.88-3.88,4.94,22.6,3.18,27.54,3.18,8.12-.35,9.18-1.06S134,444,134,444Z" style="fill:#fff;stroke:#263238;stroke-linecap:round;stroke-linejoin:round"></path><path d="M133,454.94c.32-.21.55-1.32.7-2.74-15.53,1.52-31-1.41-36.59-2.66-1.74,1.29-2.06,2.54-.83,3.28,1.76,1.06,22.6,3.18,27.54,3.18S131.89,455.65,133,454.94Z" style="fill:#fff;stroke:#263238;stroke-linecap:round;stroke-linejoin:round"></path><path d="M198.8,438.34s-1.06,3.53-7.07,7.07-13.41,7.76-9.53,8.47,11.65,1.41,16.6.71,12.71-6.71,18-10.24-3.54-11-3.54-11S201.27,438,198.8,438.34Z" style="fill:#fff;stroke:#263238;stroke-linecap:round;stroke-linejoin:round"></path><path d="M182.15,451.61c-1.25,1.14-1.5,2,0,2.27,3.88.71,11.65,1.41,16.6.71s12.71-6.71,18-10.24c2-1.35,2-3.26,1.16-5.11-5.48,4.6-13,10.44-17.28,11.7C195.31,452.52,186.41,452,182.15,451.61Z" style="fill:#fff;stroke:#263238;stroke-linecap:round;stroke-linejoin:round"></path><path d="M134.57,201.16s-8.14,2.79-12.22,5.43c-7.4,4.79-13.57,27.15-13.57,27.15s-15.12-10.29-19.53-15.38a37.82,37.82,0,0,1-6.44-10.86s-.55-7.44-.55-10.49-2.38-7.13-2.38-11.2-3.73-.34-3.73,1.36,1,4.75,1,5.77-1.09.43-1.09.43l-3.59-2.43-11-8s-1.69.68-.34,2.71,5.63,7.87,5.63,7.87l-10.25-6.68s-3-.34-2,1.7,8.82,8.14,8.82,8.14l-9.84-2.37s-2.38,1-.34,2.71,9.5,3,9.5,3l-8.82,1.7s-1.7,2.72,0,2.72,9.16-1,9.16-1,6.58,6,9.3,6.72a18,18,0,0,1,4.41,1.69s17.15,30.65,25,39.47,11.2,10.52,13.92,8.83,6.1-6.45,6.1-6.45,3.59,12.29,3.94,20.2-.69,21-.69,21,7.57,10,28.54,13.07,40.23-9.29,40.23-9.29a166.31,166.31,0,0,0-4.47-31.29c-4.12-17.19-9.28-45.74-14.09-54.68S162.06,199,156.21,198.31a85.28,85.28,0,0,0-8.94-.69Z" style="fill:#fff;stroke:#263238;stroke-linecap:round;stroke-linejoin:round"></path><path d="M75.75,196a41.75,41.75,0,0,0-1.22,6.11c-.21,2.44,2.64,5.69,4.07,6.3" style="fill:#fff;stroke:#263238;stroke-linecap:round;stroke-linejoin:round"></path><line x1="63.29" y1="215.16" x2="71.74" y2="218.68" style="fill:none;stroke:#263238;stroke-linecap:round;stroke-linejoin:round"></line><path d="M58.35,216.57a58.86,58.86,0,0,0,9.87,4.93" style="fill:none;stroke:#263238;stroke-linecap:round;stroke-linejoin:round"></path><path d="M84.42,180.64s4.22,7,4.22,9.86" style="fill:none;stroke:#263238;stroke-linecap:round;stroke-linejoin:round"></path><path d="M90.76,184.16s2.82,4.93,2.82,8.46" style="fill:none;stroke:#263238;stroke-linecap:round;stroke-linejoin:round"></path><path d="M189.22,267.43c-4.12-17.19-9.28-45.74-14.09-54.68S162.06,199,156.21,198.31s-12.72,1-12.72,1l-8.92,1.82s-8.14,2.79-12.22,5.43c-7.4,4.79-13.57,27.15-13.57,27.15a124.57,124.57,0,0,0-12.4-9.2l-6.9,9.25c4.73,7.49,9.34,14.39,12.17,17.59,7.81,8.83,11.2,10.52,13.92,8.83s6.1-6.45,6.1-6.45,3.59,12.29,3.94,20.2-1.38,36.45-1.38,36.45,4.3,6.19,25.28,9.29S198,310.41,198,310.41,193.35,284.62,189.22,267.43Z" style="fill:#BA68C8;stroke:#263238;stroke-linecap:round;stroke-linejoin:round"></path><path d="M125.71,185.61s3.73,9.84,3.39,16.62-4.16,20.55-2.8,24.62,10.27,7.28,16-4.26,9.08-17.83,10.78-24.28c0,0-5.35.19-6-4.56s-1.36-10.18-1.36-10.18S136.23,190.7,125.71,185.61Z" style="fill:#fff;stroke:#263238;stroke-linecap:round;stroke-linejoin:round"></path><path d="M119.26,129.62s-16,7.12-22.05,21-1.36,33.93,8.82,40.72,14.59,6.1,16.63,5.77a46.83,46.83,0,0,0,6.78-2.38s-.84-2-2.88-5.75-9-6.47-7.3-12.57,14.59-27.49,16.63-27.83,12.21,18.66,10.18,26.13-3.39,12.89.68,12.89,8.14-2.37,8.48-10.52-5.43-13.23-4.07-21,6.79-6.79,4.07-14.26S128.08,124.53,119.26,129.62Z" style="fill:#263238;stroke:#263238;stroke-linecap:round;stroke-linejoin:round"></path><path d="M132.16,143.19s-8.83,17.65-11.88,24.43-4.75,10.18-3.39,12.9,11.53,10.86,20.36,11.54,14.59-12.56,14.59-19.35-4.07-13.57-5.43-19.34S135.89,142.85,132.16,143.19Z" style="fill:#fff;stroke:#263238;stroke-linecap:round;stroke-linejoin:round"></path><path d="M137.59,163.55s3,5.43,2.37,7.81-4.07,1.69-4.07.34" style="fill:none;stroke:#263238;stroke-linecap:round;stroke-linejoin:round"></path><path d="M131.82,175.77s2.37,4.07,8.48,2" style="fill:none;stroke:#263238;stroke-linecap:round;stroke-linejoin:round"></path><path d="M130.8,166.27a8.49,8.49,0,0,0-6.11.67" style="fill:none;stroke:#263238;stroke-linecap:round;stroke-linejoin:round;stroke-width:2px"></path><path d="M145.39,161.52c-2.71-.34-4.75,2.71-4.75,2.71" style="fill:none;stroke:#263238;stroke-linecap:round;stroke-linejoin:round;stroke-width:2px"></path><path d="M123,163.89a9.32,9.32,0,0,1,6.11-4.75" style="fill:none;stroke:#263238;stroke-linecap:round;stroke-linejoin:round"></path><path d="M138.6,157.78s1-1.35,5.77-.34" style="fill:none;stroke:#263238;stroke-linecap:round;stroke-linejoin:round"></path><path d="M121.67,253.76s-5.69-6.62-6.38-14.53a18.74,18.74,0,0,1,4.47-13.41" style="fill:none;stroke:#263238;stroke-linecap:round;stroke-linejoin:round"></path><path d="M201.6,295.63c-2.75-7.57-12.38-53-19.6-70.5s-16.5-24.41-16.5-24.41,14.78,18.22,17.19,32.32,7.57,40.58,7.57,40.58-.69,4.13-17.89,6.19-23.72,0-24.75-4.13c0,0-2.93-16.53-1.21-32.35s2.58-20.26,5.68-29.89S158.28,199,158.28,199l-5.16-.69a220.56,220.56,0,0,0-9.63,36.45c-2.27,13.87-1.21,29.38-.49,36.68l-.2.12.69,4.12s1,21,1.37,27.86,4.48,12.72,8.95,14.1,37.13-3.1,42.29-5.16S204.35,303.19,201.6,295.63Z" style="fill:#fff;stroke:#263238;stroke-linecap:round;stroke-linejoin:round"></path><path d="M147.25,279s3.16,13.81,5.92,19.73,13,5.52,26,3.15,17-4.73,17-10.25-4-15.09-5.92-18" style="fill:none;stroke:#263238;stroke-linecap:round;stroke-linejoin:round"></path><polygon points="173.29 300.69 174.08 305.42 182.37 303.85 181.58 299.11 173.29 300.69" style="fill:none;stroke:#263238;stroke-linecap:round;stroke-linejoin:round"></polygon><path d="M156.56,208.63s-2.41,4.12-.35,10.66S183,247.49,183,247.49L160.68,265s-12.38-3.78-13.75-4.12S139,264,138,264.68s-1.72,2.75.68,4.13c0,0-.34,3.09,1,4.81a12.21,12.21,0,0,0,5.5,3.78c2.06.69,5.84,0,8.6-.69s23-8.25,28.54-10.31,22.35-12.72,25.44-14.79,1.72-5.84-.34-8.25-28.89-31.29-34.39-38.17-12.72-6.88-16.5-4.47" style="fill:#BA68C8;stroke:#263238;stroke-linecap:round;stroke-linejoin:round"></path><path d="M183.86,265.75,174.67,254l-14,11s-12.38-3.78-13.75-4.12S139,264,138,264.68s-1.72,2.75.68,4.13c0,0-.34,3.09,1,4.81a12.21,12.21,0,0,0,5.5,3.78c2.06.69,5.84,0,8.6-.69s23-8.25,28.54-10.31C182.78,266.24,183.3,266,183.86,265.75Z" style="fill:#fff;stroke:#263238;stroke-linecap:round;stroke-linejoin:round"></path></g><g id="freepik--Floor--inject-3"><line x1="469" y1="456" x2="55" y2="456" style="fill:none;stroke:#263238;stroke-linecap:round;stroke-linejoin:round"></line></g></svg>