<svg xmlns="http://www.w3.org/2000/svg" viewBox="0 0 500 500"><g id="freepik--background-simple--inject-19"><path d="M477.11,232.23c6.13-53.86-12.08-107.94-50.3-146.36C408,67,382.3,49.17,348.15,40.57c-95.77-24.12-157.85-2-188.88,56.66S39.2,145.8,25,247,79.67,459.48,196.37,465.55s101.68-52,165.52-76.94C410.72,369.55,468,312.59,477.11,232.23Z" style="fill:#BA68C8"></path><path d="M477.11,232.23c6.13-53.86-12.08-107.94-50.3-146.36C408,67,382.3,49.17,348.15,40.57c-95.77-24.12-157.85-2-188.88,56.66S39.2,145.8,25,247,79.67,459.48,196.37,465.55s101.68-52,165.52-76.94C410.72,369.55,468,312.59,477.11,232.23Z" style="fill:#fff;opacity:0.7000000000000001"></path></g><g id="freepik--Floor--inject-19"><line x1="7.68" y1="459.46" x2="483.46" y2="459.46" style="fill:none;stroke:#263238;stroke-linecap:round;stroke-linejoin:round"></line></g><g id="freepik--Table--inject-19"><path d="M85,213.14c-4.12-9-9.65-11-9.65-11" style="fill:none;stroke:#263238;stroke-linecap:round;stroke-linejoin:round"></path><line x1="92.39" y1="204.45" x2="90.12" y2="212.96" style="fill:none;stroke:#263238;stroke-linecap:round;stroke-linejoin:round"></line><line x1="94.8" y1="213.09" x2="105.91" y2="191.69" style="fill:none;stroke:#263238;stroke-linecap:round;stroke-linejoin:round"></line><line x1="87.51" y1="180.65" x2="89.73" y2="212.86" style="fill:none;stroke:#263238;stroke-linecap:round;stroke-linejoin:round"></line><path d="M95.5,224.77v-4.63l6.34-7H76.47l6.34,7v4.63a28.51,28.51,0,0,1-9.09,20.88h0V274h30.87V245.65h0A28.54,28.54,0,0,1,95.5,224.77Z" style="fill:none;stroke:#263238;stroke-linecap:round;stroke-linejoin:round"></path><path d="M80.52,201.75c7.85-7.07,2.31-12.62-4.77-4.77a.56.56,0,0,1-.82,0c-7.07-7.85-12.62-2.3-4.77,4.77a.54.54,0,0,1,0,.82c-7.85,7.07-2.3,12.62,4.77,4.77a.54.54,0,0,1,.82,0c7.08,7.85,12.62,2.3,4.77-4.77A.56.56,0,0,1,80.52,201.75Z" style="fill:#263238"></path><path d="M77.89,202.16a2.55,2.55,0,1,0-2.55,2.55A2.55,2.55,0,0,0,77.89,202.16Z" style="fill:#fff;stroke:#263238;stroke-linecap:round;stroke-linejoin:round"></path><path d="M92.21,182.87c10.33-2.24,8.27-9.81-1.77-6.51a.55.55,0,0,1-.71-.41c-2.24-10.32-9.81-8.27-6.51,1.77a.55.55,0,0,1-.41.71c-10.32,2.24-8.27,9.81,1.77,6.51a.56.56,0,0,1,.72.41c2.23,10.32,9.8,8.27,6.5-1.77A.55.55,0,0,1,92.21,182.87Z" style="fill:#263238"></path><path d="M89.72,181.92a2.55,2.55,0,1,0-3.47.94A2.55,2.55,0,0,0,89.72,181.92Z" style="fill:#fff;stroke:#263238;stroke-linecap:round;stroke-linejoin:round"></path><path d="M109,195.86c10.15,2.92,11.92-4.72,1.52-6.57a.54.54,0,0,1-.44-.69c2.91-10.16-4.72-11.93-6.57-1.52a.55.55,0,0,1-.7.43c-10.15-2.91-11.92,4.73-1.52,6.57a.55.55,0,0,1,.44.7c-2.91,10.16,4.73,11.92,6.57,1.52A.56.56,0,0,1,109,195.86Z" style="fill:#263238"></path><path d="M107.26,193.85a2.55,2.55,0,1,0-3.51-.81A2.56,2.56,0,0,0,107.26,193.85Z" style="fill:#fff;stroke:#263238;stroke-linecap:round;stroke-linejoin:round"></path><path d="M95.48,208.63c10.16,2.91,11.92-4.73,1.52-6.57a.56.56,0,0,1-.44-.7c2.92-10.16-4.72-11.92-6.57-1.52a.54.54,0,0,1-.69.43c-10.16-2.91-11.93,4.73-1.52,6.57a.56.56,0,0,1,.43.7c-2.91,10.16,4.73,11.92,6.57,1.52A.55.55,0,0,1,95.48,208.63Z" style="fill:#263238"></path><path d="M93.74,206.61a2.55,2.55,0,1,0-3.51-.81A2.55,2.55,0,0,0,93.74,206.61Z" style="fill:#fff;stroke:#263238;stroke-linecap:round;stroke-linejoin:round"></path><polygon points="24.9 282.66 24.9 459.3 30.36 459.3 30.36 340.01 142.55 340.01 142.55 459.3 148.02 459.3 148.02 282.66 24.9 282.66" style="fill:none;stroke:#263238;stroke-linecap:round;stroke-linejoin:round"></polygon><rect x="20.84" y="274.12" width="131.24" height="8.54" style="fill:none;stroke:#263238;stroke-linecap:round;stroke-linejoin:round"></rect><rect x="32.6" y="293.33" width="108.4" height="37.86" style="fill:none;stroke:#263238;stroke-linecap:round;stroke-linejoin:round"></rect><rect x="69.68" y="307.85" width="34.23" height="8.82" style="fill:none;stroke:#263238;stroke-linecap:round;stroke-linejoin:round"></rect></g><g id="freepik--Picture--inject-19"><rect x="45.41" y="27.24" width="91.21" height="107.26" style="fill:none;stroke:#000;stroke-linecap:round;stroke-linejoin:round"></rect><rect x="49.27" y="33.68" width="83.49" height="94.39" style="fill:none;stroke:#000;stroke-linecap:round;stroke-linejoin:round"></rect><rect x="67.09" y="53.83" width="47.84" height="54.09" style="fill:none;stroke:#000;stroke-linecap:round;stroke-linejoin:round"></rect></g><g id="freepik--Lines--inject-19"><line x1="233.41" y1="194.38" x2="251.92" y2="201.49" style="fill:none;stroke:#263238;stroke-linecap:round;stroke-linejoin:round"></line><line x1="233.41" y1="258.44" x2="251.92" y2="251.32" style="fill:none;stroke:#263238;stroke-linecap:round;stroke-linejoin:round"></line><line x1="251.92" y1="227.83" x2="238.39" y2="227.83" style="fill:none;stroke:#263238;stroke-linecap:round;stroke-linejoin:round"></line><line x1="470.45" y1="194.38" x2="451.94" y2="201.49" style="fill:none;stroke:#263238;stroke-linecap:round;stroke-linejoin:round"></line><line x1="470.45" y1="258.44" x2="451.94" y2="251.32" style="fill:none;stroke:#263238;stroke-linecap:round;stroke-linejoin:round"></line><line x1="451.94" y1="227.83" x2="465.46" y2="227.83" style="fill:none;stroke:#263238;stroke-linecap:round;stroke-linejoin:round"></line></g><g id="freepik--Device--inject-19"><rect x="267.58" y="35.63" width="173.85" height="369.05" rx="25.7" style="fill:#BA68C8;stroke:#263238;stroke-linecap:round;stroke-linejoin:round"></rect><path d="M435.37,61.31V379a19.93,19.93,0,0,1-19.94,19.93H293.57a18.69,18.69,0,0,1-2.71-.19A19.92,19.92,0,0,1,273.63,379V61.31a19.94,19.94,0,0,1,19.94-19.94h3.54c11,0,32.82.2,32.85.31,4.76,0,7.65.82,9.81,3,3.44,3.44,7.46,8.14,12.71,8.69,5.49.57,9.85-3.88,13.42-7.41,4-4,9.38-4.57,14.8-4.57h34.73A19.94,19.94,0,0,1,435.37,61.31Z" style="fill:#263238;stroke:#263238;stroke-linecap:round;stroke-linejoin:round"></path><circle cx="353.47" cy="45.71" r="3.51" style="fill:#7d7d7d"></circle><path d="M441.37,141.79h0V95.86h0A3.15,3.15,0,0,1,444.52,99v39.64A3.14,3.14,0,0,1,441.37,141.79Z" style="fill:#BA68C8;stroke:#263238;stroke-linecap:round;stroke-linejoin:round"></path><path d="M441.37,181.38h0V158.46h0a3.15,3.15,0,0,1,3.15,3.15v16.62A3.15,3.15,0,0,1,441.37,181.38Z" style="fill:#BA68C8;stroke:#263238;stroke-linecap:round;stroke-linejoin:round"></path><path d="M269,298.91s.39,2,.77,2.13,4.17-.1,4.27-1.07-1.94-1.55-1.94-1.55Z" style="fill:#fff;stroke:#263238;stroke-linejoin:round"></path><path d="M419,57.56H403.76a.41.41,0,0,1-.41-.41V48.8a.41.41,0,0,1,.41-.42H419a.42.42,0,0,1,.41.42v8.35A.42.42,0,0,1,419,57.56Zm-14.82-.82h14.41V49.21H404.17Z" style="fill:#696969"></path><rect x="403.76" y="48.8" width="11.88" height="8.35" style="fill:#696969"></rect><path d="M415.63,57.51H403.76a.36.36,0,0,1-.36-.36V48.8a.37.37,0,0,1,.36-.37h11.87a.37.37,0,0,1,.37.37v8.35A.36.36,0,0,1,415.63,57.51Zm-11.51-.73h11.15V49.16H404.12Z" style="fill:#696969"></path><rect x="418.96" y="51.13" width="2.15" height="3.68" style="fill:#696969"></rect><path d="M421.1,55.17H419a.36.36,0,0,1-.37-.36V51.13a.36.36,0,0,1,.37-.36h2.14a.36.36,0,0,1,.36.36v3.68A.36.36,0,0,1,421.1,55.17Zm-1.78-.72h1.42v-3h-1.42Z" style="fill:#696969"></path><rect x="284.21" y="51.39" width="2.79" height="4.79" style="fill:#696969"></rect><path d="M287,56.61h-2.8a.44.44,0,0,1-.44-.44V51.39a.45.45,0,0,1,.44-.45H287a.45.45,0,0,1,.44.45v4.78A.44.44,0,0,1,287,56.61Zm-2.35-.88h1.9v-3.9h-1.9Z" style="fill:#696969"></path><rect x="288.6" y="49.71" width="2.79" height="6.47" style="fill:#696969"></rect><path d="M291.39,56.61H288.6a.44.44,0,0,1-.44-.44V49.71a.45.45,0,0,1,.44-.45h2.79a.45.45,0,0,1,.45.45v6.46A.44.44,0,0,1,291.39,56.61ZM289,55.73H291V50.15H289Z" style="fill:#696969"></path><rect x="292.99" y="47.72" width="2.79" height="8.45" style="fill:#696969"></rect><path d="M295.78,56.61H293a.44.44,0,0,1-.44-.44V47.72a.44.44,0,0,1,.44-.44h2.79a.44.44,0,0,1,.44.44v8.45A.43.43,0,0,1,295.78,56.61Zm-2.35-.88h1.91V48.16h-1.91Z" style="fill:#696969"></path><circle cx="356.04" cy="336.56" r="17.38" style="fill:#BA68C8;stroke:#263238;stroke-linecap:round;stroke-linejoin:round"></circle><path d="M367.56,334.19c-1.29-1-4.24-2.44-9.77-2.62h-4.11c-5.53.18-8.48,1.65-9.77,2.62a4.31,4.31,0,0,0-1.89,4.15,7.42,7.42,0,0,0,2,3.13c.27.28.55.33,1.19,0s5-2.54,5.26-3-.1-2-.1-2a1.25,1.25,0,0,1,.88-.27l4.45-.13,4.46.13a1.22,1.22,0,0,1,.87.27s-.37,1.52-.09,2,4.61,2.72,5.25,3,.93.23,1.2,0a7.42,7.42,0,0,0,2-3.13A4.31,4.31,0,0,0,367.56,334.19Z" style="fill:#fff"></path><circle cx="355.98" cy="202.3" r="17.38" style="fill:#696969"></circle><circle cx="350.2" cy="196.52" r="2.38" style="fill:#fff"></circle><circle cx="355.98" cy="196.52" r="2.38" style="fill:#fff"></circle><circle cx="361.77" cy="196.52" r="2.38" style="fill:#fff"></circle><path d="M352.58,202.3a2.38,2.38,0,1,0-2.38,2.38A2.38,2.38,0,0,0,352.58,202.3Z" style="fill:#fff"></path><path d="M358.36,202.3a2.38,2.38,0,1,0-2.38,2.38A2.38,2.38,0,0,0,358.36,202.3Z" style="fill:#fff"></path><path d="M364.15,202.3a2.38,2.38,0,1,0-2.38,2.38A2.39,2.39,0,0,0,364.15,202.3Z" style="fill:#fff"></path><circle cx="350.2" cy="208.08" r="2.38" style="fill:#fff"></circle><circle cx="355.98" cy="208.08" r="2.38" style="fill:#fff"></circle><circle cx="361.77" cy="208.08" r="2.38" style="fill:#fff"></circle><circle cx="403.05" cy="202.3" r="17.38" style="fill:#696969"></circle><polygon points="397.72 199.26 392.57 199.26 392.57 206.58 397.72 206.58 402.6 210.24 402.6 195.6 397.72 199.26" style="fill:#fff"></polygon><path d="M410,202.79a7.61,7.61,0,0,1-1.51,4.56l.82.49a8.55,8.55,0,0,0-.09-10.22l-.82.49A7.61,7.61,0,0,1,410,202.79Z" style="fill:#fff"></path><path d="M413.55,202.79a11.09,11.09,0,0,1-2,6.36l.83.49a12.11,12.11,0,0,0-.09-13.82l-.82.49A11.15,11.15,0,0,1,413.55,202.79Z" style="fill:#fff"></path><path d="M406.19,202.79a3.8,3.8,0,0,1-1,2.59l.83.49a4.72,4.72,0,0,0-.09-6.28l-.83.49A3.83,3.83,0,0,1,406.19,202.79Z" style="fill:#fff"></path><circle cx="403.05" cy="253.63" r="17.38" style="fill:#696969"></circle><path d="M410.73,253.63a7.69,7.69,0,1,1-7.68-7.7A7.68,7.68,0,0,1,410.73,253.63Z" style="fill:none;stroke:#fff;stroke-miterlimit:10"></path><path d="M405.51,251.85a2.42,2.42,0,1,0-2.41,2.42A2.41,2.41,0,0,0,405.51,251.85Z" style="fill:#fff"></path><path d="M409.29,258.12a7.69,7.69,0,0,1-12.28.26,9.8,9.8,0,0,1,6.31-2.13A10,10,0,0,1,409.29,258.12Z" style="fill:#fff"></path><circle cx="355.98" cy="253.63" r="17.38" style="fill:#696969"></circle><rect x="347.05" y="247.15" width="13.19" height="12.59" rx="1.39" style="fill:#fff"></rect><polygon points="361.14 250.6 361.14 256.29 365.64 259.13 365.64 247.76 361.14 250.6" style="fill:#fff"></polygon><circle cx="308.92" cy="253.63" r="17.38" style="fill:#696969"></circle><line x1="308.92" y1="244.8" x2="308.92" y2="262.45" style="fill:none;stroke:#fff;stroke-miterlimit:10"></line><line x1="317.75" y1="253.63" x2="300.09" y2="253.63" style="fill:none;stroke:#fff;stroke-miterlimit:10"></line><circle cx="308.92" cy="202.3" r="17.38" style="fill:#696969"></circle><path d="M308.9,205.6a2.68,2.68,0,0,0,2.69-2.69v-8.54a2.7,2.7,0,1,0-5.39,0v8.54A2.69,2.69,0,0,0,308.9,205.6Z" style="fill:#fff"></path><path d="M313.68,202.78v-4a.49.49,0,0,0-1,0v4a3.78,3.78,0,1,1-7.56,0v-4a.49.49,0,0,0-1,0v4a4.77,4.77,0,0,0,4.27,4.74v4.42h-2.8a.5.5,0,0,0,0,1h6.57a.5.5,0,1,0,0-1h-2.79v-4.42A4.77,4.77,0,0,0,313.68,202.78Z" style="fill:#fff"></path><line x1="301.39" y1="194.36" x2="316.35" y2="209.32" style="fill:none;stroke:#fff;stroke-miterlimit:10"></line><path d="M338.76,106.69a2.31,2.31,0,0,1-1.44-.39,1.94,1.94,0,0,1-.71-1,5.11,5.11,0,0,1-.19-1.46v-3.68a4.87,4.87,0,0,1,.2-1.5,1.85,1.85,0,0,1,.71-1,2.46,2.46,0,0,1,1.43-.37,2.35,2.35,0,0,1,1.31.32,1.85,1.85,0,0,1,.68.91,4.18,4.18,0,0,1,.2,1.4v.56h-.82v-.54a4.53,4.53,0,0,0-.1-1,1.14,1.14,0,0,0-.39-.67,1.38,1.38,0,0,0-.88-.24,1.45,1.45,0,0,0-.93.26,1.24,1.24,0,0,0-.42.72,4.52,4.52,0,0,0-.11,1.09v3.94a4.06,4.06,0,0,0,.13,1.14,1.23,1.23,0,0,0,.45.69,1.51,1.51,0,0,0,.88.23,1.32,1.32,0,0,0,.88-.26,1.16,1.16,0,0,0,.39-.7,4.68,4.68,0,0,0,.1-1.05v-.61H341v.55a5.25,5.25,0,0,1-.18,1.44,1.8,1.8,0,0,1-.67,1A2.16,2.16,0,0,1,338.76,106.69Z" style="fill:#BA68C8"></path><path d="M341.81,106.58l1.95-9.26h.92l2,9.26h-.85l-.46-2.48h-2.21l-.46,2.48Zm1.44-3.11h2l-1-5Z" style="fill:#BA68C8"></path><path d="M347.76,106.58V97.32h.87v8.61h2.63v.65Z" style="fill:#BA68C8"></path><path d="M352.13,106.58V97.32H353v8.61h2.63v.65Z" style="fill:#BA68C8"></path><path d="M356.51,106.58V97.32h.87v9.26Z" style="fill:#BA68C8"></path><path d="M359,106.58V97.32h.62l3,7.19V97.32h.76v9.26h-.62l-3-7.27v7.27Z" style="fill:#BA68C8"></path><path d="M367.05,106.7a2.3,2.3,0,0,1-1.37-.36,2,2,0,0,1-.7-1,5.24,5.24,0,0,1-.21-1.55v-3.61a5.45,5.45,0,0,1,.2-1.55,1.91,1.91,0,0,1,.71-1,3,3,0,0,1,2.75,0,1.78,1.78,0,0,1,.71.9,4.42,4.42,0,0,1,.21,1.46v.32h-.82V99.9a4.19,4.19,0,0,0-.12-1.1,1.13,1.13,0,0,0-.42-.65,1.41,1.41,0,0,0-.87-.22,1.44,1.44,0,0,0-.95.27,1.28,1.28,0,0,0-.42.76,5.16,5.16,0,0,0-.1,1.1v3.8a4.78,4.78,0,0,0,.12,1.15,1.24,1.24,0,0,0,.45.73,1.44,1.44,0,0,0,.92.26,1.36,1.36,0,0,0,.88-.26,1.34,1.34,0,0,0,.44-.74,4.36,4.36,0,0,0,.13-1.16v-1.09h-1.37v-.65h2.17v4.48h-.56l-.1-1a1.78,1.78,0,0,1-.57.85A1.67,1.67,0,0,1,367.05,106.7Z" style="fill:#BA68C8"></path><path d="M370.77,106.58v-1.26h.88v1.26Z" style="fill:#BA68C8"></path><path d="M372.84,106.58v-1.26h.88v1.26Z" style="fill:#BA68C8"></path><path d="M374.91,106.58v-1.26h.88v1.26Z" style="fill:#BA68C8"></path><path d="M312.24,131.52V114.69h6.09v1.22h-4.49v6.32h3.66v1.17h-3.66v6.94h4.53v1.18Z" style="fill:#BA68C8"></path><path d="M320.39,131.52l.41-16.83h1.56l3.35,14.61,3.39-14.61h1.57l.42,16.83h-1.31l-.33-13.4-3.22,13.4h-1L322,118.14l-.34,13.38Z" style="fill:#BA68C8"></path><path d="M333.86,131.52V114.69H340v1.22h-4.49v6.32h3.65v1.17h-3.65v6.94H340v1.18Z" style="fill:#BA68C8"></path><path d="M342.15,131.52V114.69H346a5.11,5.11,0,0,1,2.49.51,2.92,2.92,0,0,1,1.3,1.47,6.15,6.15,0,0,1,.39,2.3,7.13,7.13,0,0,1-.21,1.76,3.33,3.33,0,0,1-.7,1.42,2.46,2.46,0,0,1-1.42.77l2.58,8.6h-1.54l-2.47-8.27h-2.64v8.27Zm1.58-9.43h2.14a3.12,3.12,0,0,0,1.64-.36,1.89,1.89,0,0,0,.83-1,5,5,0,0,0,.25-1.72,4.07,4.07,0,0,0-.54-2.33,2.47,2.47,0,0,0-2.14-.77h-2.18Z" style="fill:#BA68C8"></path><path d="M356.58,131.75a4.14,4.14,0,0,1-2.49-.66,3.59,3.59,0,0,1-1.28-1.88,9.64,9.64,0,0,1-.37-2.82v-6.57a9.74,9.74,0,0,1,.36-2.81,3.38,3.38,0,0,1,1.29-1.84,4.53,4.53,0,0,1,2.61-.65,4.49,4.49,0,0,1,2.4.56,3.12,3.12,0,0,1,1.28,1.64,7.82,7.82,0,0,1,.39,2.64V120h-1.49v-.59a7.39,7.39,0,0,0-.22-2,2.15,2.15,0,0,0-.76-1.19,2.72,2.72,0,0,0-1.6-.39,2.52,2.52,0,0,0-1.72.5,2.3,2.3,0,0,0-.76,1.37,9.93,9.93,0,0,0-.18,2v6.93a8.62,8.62,0,0,0,.22,2.1,2.29,2.29,0,0,0,.81,1.33,2.7,2.7,0,0,0,1.67.45,2.19,2.19,0,0,0,2.41-1.81,8.08,8.08,0,0,0,.23-2.12v-2h-2.49v-1.19h3.95v8.15h-1l-.19-1.91a3.23,3.23,0,0,1-1,1.56A3.12,3.12,0,0,1,356.58,131.75Z" style="fill:#BA68C8"></path><path d="M363.56,131.52V114.69h6.09v1.22h-4.49v6.32h3.66v1.17h-3.66v6.94h4.53v1.18Z" style="fill:#BA68C8"></path><path d="M371.85,131.52V114.69H373l5.36,13.07V114.69h1.37v16.83h-1.12L373.2,118.3v13.22Z" style="fill:#BA68C8"></path><path d="M386.57,131.73a4.2,4.2,0,0,1-2.63-.71,3.59,3.59,0,0,1-1.28-1.9,9.5,9.5,0,0,1-.35-2.65v-6.69a9.38,9.38,0,0,1,.36-2.74,3.45,3.45,0,0,1,1.3-1.86,4.46,4.46,0,0,1,2.6-.66,4.19,4.19,0,0,1,2.38.58,3.2,3.2,0,0,1,1.24,1.65,7.79,7.79,0,0,1,.37,2.55v1h-1.49v-1a8.66,8.66,0,0,0-.18-1.89,2.15,2.15,0,0,0-.72-1.23,2.5,2.5,0,0,0-1.6-.43,2.56,2.56,0,0,0-1.69.47,2.25,2.25,0,0,0-.77,1.32,8.24,8.24,0,0,0-.2,2v7.17a7.62,7.62,0,0,0,.24,2.08,2.25,2.25,0,0,0,.82,1.25,2.76,2.76,0,0,0,1.6.41,2.44,2.44,0,0,0,1.6-.45,2.26,2.26,0,0,0,.72-1.28,9.12,9.12,0,0,0,.18-1.93v-1.1h1.49v1a9,9,0,0,1-.34,2.62A3.34,3.34,0,0,1,389,131.1,4.07,4.07,0,0,1,386.57,131.73Z" style="fill:#BA68C8"></path><path d="M395.72,131.52v-5.59l-3.81-11.24h1.54l3,9.35,2.91-9.35H401l-3.71,11.24v5.59Z" style="fill:#BA68C8"></path></g><g id="freepik--Characters--inject-19"><path d="M221.29,441s3.57-5,6-5.77,7.09,3.33,7.5,4,7.39,4.42,10.64,5.7,7,7.92,7.93,9.76.39,3.71-1.86,3.9-10.69-3.32-14.87-4.86-8.83-2.8-8.83-2.8-7-5.3-7.17-6S221.29,441,221.29,441Z" style="fill:#fff;stroke:#263238;stroke-linecap:round;stroke-linejoin:round"></path><path d="M157.14,462.52s12.54-1.35,17.94-4.06,49.16-7,49.16-7l-3.66-9.65s-31.42,2.42-39.33,1.46-11.38-1.55-12.34-1.55-3.47,9.65-5.59,12.54-7.53,5.4-7.53,5.4S153.86,462.13,157.14,462.52Z" style="fill:#fff;stroke:#263238;stroke-linecap:round;stroke-linejoin:round"></path><path d="M258.64,446.1s3.57-5,6-5.77,7.09,3.34,7.49,4.05,7.4,4.41,10.65,5.7,7,7.91,7.93,9.76.39,3.7-1.86,3.89-10.69-3.32-14.87-4.86-8.83-2.8-8.83-2.8-6.95-5.3-7.17-6S258.64,446.1,258.64,446.1Z" style="fill:#263238;stroke:#263238;stroke-linecap:round;stroke-linejoin:round"></path><path d="M198.34,462.53a73.78,73.78,0,0,0,13,.13c7.54-.54,28.68-3.85,31.12-4s21.06-2.46,21.06-2.46,2.28.42,1.1-3.3-5.94-6.82-5.94-6.82-12.67-.45-16.89-.4-30.61-2.28-30.61-2.28S196.43,453.41,198.34,462.53Z" style="fill:#263238;stroke:#263238;stroke-linecap:round;stroke-linejoin:round"></path><path d="M150.82,363.82a157,157,0,0,0-3.51,22.51c-.58,10-5.4,64.42-4.05,67.31s6.17,10,12.34,8.88,9.45-4.63,10.42-6.18,14.85-58.44,14.85-58.44,3.28,12,3.28,14.85-2.93,44.8-.59,46.86c6.12,5.4,13.13,4.06,14.09,4.06s7.33-1.54,8.49-2.89,9.64-32.21,11.18-43.4,8.3-42.05,5.79-52.08S212.89,346,212.89,346s-6,5.21-23.15,12.73-32.4,5.79-34,5S150.82,363.82,150.82,363.82Z" style="fill:#BA68C8;stroke:#263238;stroke-linecap:round;stroke-linejoin:round"></path><path d="M126.4,278.05s-3.74,5.46-4.31,8.47-9.2,26.87-9.2,26.87,8.48,2,11.64,2.16l6.46.28,2.88.58s.57,14.94,3.59,18.1,8.91,6.9,9.48,9.19,4.17,19.4,3.88,20.12-1.29,5.31-1.29,5.31,10.77,9.49,24.42,9.49,25.29,0,32.47-10.2,9.2-15.81,7.9-20.12-8.33-8.76-9-9.48-7.47-8.76-7.47-8.76.86-32.76-.43-41.24-8.76-11.49-12.07-12.07-15.94-.71-15.94-.71l-35.78-1.3Z" style="fill:#263238;stroke:#263238;stroke-linecap:round;stroke-linejoin:round"></path><path d="M115.77,273s-2.16,2.58.71,6.9S127.55,296,128,297s-10.35,24.57-10.35,24.57-8.47,11.92-7.18,17.1,7.76,9.19,9.34,8.76,8.33-5.89,10.2-9.48,6-42.53,6-42.53,1.73-6.75,1.58-8.76a71.56,71.56,0,0,0-1.43-8.34c-.29-.86-7.76-19-7.76-19l-9.77,10.34Z" style="fill:#fff;stroke:#263238;stroke-linecap:round;stroke-linejoin:round"></path><path d="M129.56,285.66s2.87,3.74,3.3,6a8.46,8.46,0,0,1-.28,4.16" style="fill:none;stroke:#263238;stroke-linecap:round;stroke-linejoin:round"></path><polygon points="125.68 256.93 125.25 283.51 132.14 284.23 131 258.22 125.68 256.93" style="fill:#263238;stroke:#263238;stroke-linecap:round;stroke-linejoin:round"></polygon><path d="M118.78,276.75s8.19-6.46,9.34-8a4.49,4.49,0,0,0,1-2.87l-3.88-11.93s-3.88,3-4.46,4.31-5.31,14.94-5.6,15.95-1,2.3.72,3.73" style="fill:#fff;stroke:#263238;stroke-linecap:round;stroke-linejoin:round"></path><path d="M118.35,272.3s7.9-5.17,9.92-7.76" style="fill:none;stroke:#263238;stroke-linecap:round;stroke-linejoin:round"></path><path d="M118.64,267.27s7.18-4.16,8.62-7" style="fill:none;stroke:#263238;stroke-linecap:round;stroke-linejoin:round"></path><line x1="120.08" y1="261.96" x2="125.97" y2="257.79" style="fill:none;stroke:#263238;stroke-linecap:round;stroke-linejoin:round"></line><path d="M140,283.85s1.91,11.93,6.58,19.2S161.43,320,161.43,320s7.43-14.7,8.82-28.36,1.38-15.56,1.38-15.56l-4-.52L140,278.84Z" style="fill:#757575;stroke:#263238;stroke-linecap:round;stroke-linejoin:round"></path><path d="M142.35,286.81s4.16,12.21,8,18a72.7,72.7,0,0,0,9.05,10.63,65.2,65.2,0,0,0,7.33-20.83c1.72-11.35,2.59-18.53,2.59-18.53a43.45,43.45,0,0,1-4-5.89c-.72-1.73-1.43-3-1.43-3s-.44,8.19-5.61,13.22-6.18,5.74-9.19,6S142.35,286.81,142.35,286.81Z" style="fill:#fff;stroke:#263238;stroke-linecap:round;stroke-linejoin:round"></path><path d="M153.69,291l2.08-8.23c-3.1,2.88-4.22,3.4-6.67,3.63-3,.29-6.75.43-6.75.43s2.14,6.29,4.79,12Z" style="fill:#263238;stroke:#263238;stroke-linecap:round;stroke-linejoin:round"></path><path d="M120.51,244.72s-3.88,6.17-3.31,9.48,8.48,7.61,8.48,7.61l3.3-9.48s10.35,3.74,13.37,3.88,9.33-.43,10.91-.14,11.21,5.74,10.49,7.32-1,4.74-.57,5.61a18,18,0,0,0,2,2.58s4.88-2,7.47-4.74,4.17-5.17,4.31-8.48-7-13.64-7-13.64-1.29-9.06-3.3-11.64-17.39-10.63-21.7-11.5-3.3-1.72-5.89-.43-19,11.78-19.83,15.09S120.51,244.72,120.51,244.72Z" style="fill:#263238;stroke:#263238;stroke-linecap:round;stroke-linejoin:round"></path><path d="M127.55,248.16s11.06,5.32,13.93,5.61a24.64,24.64,0,0,0,5,0l-2.73-7.91a13.72,13.72,0,0,0,8.48,7.48c6.18,1.72,11.2,3.16,11.2,3.16l.72-3.88s4.17-.15,4.89,3.88,0,9.05-.58,9.62-3.16,2.45-3.16,2.45,1.15,4.74.72,5.74S154.41,290,153.69,291s-4.88,1.58-6.75,1.15-11.2-11.07-13.5-13.36-5.75-11.64-7-14.66-1.3-3.88-.43-6.32S127.55,248.16,127.55,248.16Z" style="fill:#fff;stroke:#263238;stroke-linecap:round;stroke-linejoin:round"></path><path d="M137.17,262.67s2.45,6.33,3.59,9.06,1.73,7,3.17,6.6a8.52,8.52,0,0,0,2.87-1.86" style="fill:none;stroke:#263238;stroke-linecap:round;stroke-linejoin:round"></path><path d="M146.94,283.51s4.31,0,5.17-.87-.14-2.15-2.87-1.86S144.36,281.78,146.94,283.51Z" style="fill:#263238;stroke:#263238;stroke-linecap:round;stroke-linejoin:round"></path><path d="M149.41,263.34c.43,1,.22,2-.47,2.33s-1.6-.25-2-1.23-.23-2,.46-2.33S149,262.35,149.41,263.34Z" style="fill:#263238"></path><path d="M136.62,266.36a1.73,1.73,0,0,1-.46,2.33c-.7.3-1.61-.25-2-1.23s-.22-2,.47-2.33S136.19,265.37,136.62,266.36Z" style="fill:#263238"></path><path d="M130,263.39a6.84,6.84,0,0,1,5.75-2.73l-.43-1.72" style="fill:none;stroke:#263238;stroke-linecap:round;stroke-linejoin:round"></path><path d="M140.62,257.22l1,1.29a14.86,14.86,0,0,1,8.9-1.44" style="fill:none;stroke:#263238;stroke-linecap:round;stroke-linejoin:round"></path><path d="M263,421.7s29.2,9.64,36.86,10.21,24.67,4.82,24.67,4.82S357.69,440.41,360,441s23.25,7.09,29.21,7.94,14.46,2.27,14.46,2.27l-1.7,11.34-68.34-.28-74,4.25L240,454.87l-20.13-5.1s-2.84-19.85-2-25.24,5.11-9.35,17-8.79S263,421.7,263,421.7Z" style="fill:#263238;stroke:#263238;stroke-linecap:round;stroke-linejoin:round"></path><path d="M221.86,395s14.22-8.31,27.14-2.77,17.72,23.63,18.09,30.46-1.66,30.09-1.66,30.09a135.32,135.32,0,0,1,15.51-.74c7.2.19,37.84,2.59,40.24,2.4s7-.18,7-.18v9.23s-17.35,5-35.62,10.34-34,11.63-38.4,12.55a7.74,7.74,0,0,1-8.68-4.62c-1.11-2.58-16.43-35.07-19.93-44.85S220,420.67,220,419.19,221.86,395,221.86,395Z" style="fill:#263238;stroke:#263238;stroke-linecap:round;stroke-linejoin:round"></path><path d="M319.13,453.88l4.58-.13" style="fill:none;stroke:#a6a6a6;stroke-linecap:round;stroke-linejoin:round"></path><path d="M267.08,426l1.06,30.95s14.42-1.76,21.45-2.11c4.19-.21,15.48-.55,23.94-.78" style="fill:none;stroke:#a6a6a6;stroke-linecap:round;stroke-linejoin:round"></path><path d="M232.7,452.53a89.91,89.91,0,0,1-6.06-23" style="fill:none;stroke:#a6a6a6;stroke-linecap:round;stroke-linejoin:round"></path><path d="M236.13,460.08s-.49-.92-1.26-2.55" style="fill:none;stroke:#a6a6a6;stroke-linecap:round;stroke-linejoin:round"></path><path d="M328.19,454.27l14.77,2s15.88,7.2,16.25,12.92-4.06,8.68-10.89,5.72-12.74-10.33-14.4-10.89a27.08,27.08,0,0,0-5.73-.55Z" style="fill:#fff;stroke:#263238;stroke-linecap:round;stroke-linejoin:round"></path><path d="M108.52,423.81l8.86-6.46s4.24-18.83,9.23-21.05,15.87-3.87,19.93-2.58,33.6,11.81,35.08,12,8.68.37,8.68.37,4.24-5.17,6.83-5.54,5.16,2.4,5.16,2.4l21.42-9.6s2,15.51.18,26.95-.18,17.54,1.11,24A93.65,93.65,0,0,1,226.48,458l-10.71.55s7,5.73,7.94,7a21,21,0,0,0,2.58,2.77,59.43,59.43,0,0,0-8.49,0c-3.32.37-9.78,1.66-22.7-.56s-18.83-3.69-24.56-3.69-14.58.56-14.58.56-23.45-5.73-25.29-5.91-8.86,1.66-11.45,2-5.53.18-5.53-4.25.18-8.67-.74-12.18S108.52,423.81,108.52,423.81Z" style="fill:#BA68C8;stroke:#263238;stroke-linecap:round;stroke-linejoin:round"></path><path d="M202.3,455.74c-6.52-1-14.86-2-19.2-1.36a33.18,33.18,0,0,1-15.54-1.19" style="fill:none;stroke:#263238;stroke-linecap:round;stroke-linejoin:round"></path><path d="M211.5,457.37s-1.93-.39-4.84-.9" style="fill:none;stroke:#263238;stroke-linecap:round;stroke-linejoin:round"></path><path d="M191.77,409.55s-18.23,8.37-26.6,8.67" style="fill:#BA68C8;stroke:#263238;stroke-linecap:round;stroke-linejoin:round"></path><path d="M201.93,404.42s-.74,11.45-3.14,16.62" style="fill:none;stroke:#263238;stroke-linecap:round;stroke-linejoin:round"></path><path d="M206.66,426.29a25.18,25.18,0,0,1-.49,4" style="fill:none;stroke:#263238;stroke-linecap:round;stroke-linejoin:round"></path><path d="M203.77,403.87a103.21,103.21,0,0,1,2.88,18.24" style="fill:none;stroke:#263238;stroke-linecap:round;stroke-linejoin:round"></path><path d="M141,445.75s-28.34,12.81-29.2,13.83-10.07,3.07-12.46,3.59-17.93-1-17.25,0,12.64,4.61,15,4.61,13.32-2,14.34-2.22,28.35-7.35,31.76-8.54a36.48,36.48,0,0,0,6-2.73Z" style="fill:#fff;stroke:#263238;stroke-linecap:round;stroke-linejoin:round"></path><path d="M128.67,414.33l19.12,25.61L141,445.75,152.23,456s12-5.29,15.37-6.83,5.63-2.9,5.12-5.29-20.32-44.39-20.32-44.39" style="fill:#BA68C8;stroke:#263238;stroke-linecap:round;stroke-linejoin:round"></path><path d="M143.86,472.9s8.2,0,12.3-2.56,7.68-8.37,6.83-13.15,1.88-4.78-7-5.63a27.64,27.64,0,0,0-18.27,4.61c-3.59,2.22-4.78,4.78,2.56,4.61s12.12.51,9.73,2.9S142,471.7,143.86,472.9Z" style="fill:#BA68C8;stroke:#263238;stroke-linecap:round;stroke-linejoin:round"></path><path d="M124.23,460.6s-19.81,12-21,12.81-6.66.51-9.57-.51a9.44,9.44,0,0,0-6.49-.17,46.16,46.16,0,0,1-6.65,1.36c-1.88.17-5-.51-4.44,1.54s4.44,1.71,4.44,1.71-3.08,6.49-2.22,7.17,13.31.34,17.58-.51,14.18-3.76,15.54-4.27,27.83-4.78,35-8,13.32-10.07,13.32-13.66.52-5.29-7.34-3.92S135.67,454.63,124.23,460.6Z" style="fill:#fff;stroke:#263238;stroke-linecap:round;stroke-linejoin:round"></path><path d="M94.28,484.13c-.69,0-14.62,1.92-14.62,1.92s-3.11-3.62-3.63-4-1.15-3.72-1.15-3.72,1.2-1,1.71,0l.51,1s3.07-.81,4.44-.34c1.15.38,2.73.85,2.73.85s.51-1.88,1.71-1.54a57.79,57.79,0,0,1,6.15,3.42s4-3.71,5.93-4.39a8.9,8.9,0,0,1,4-.3" style="fill:#fff;stroke:#263238;stroke-linecap:round;stroke-linejoin:round"></path><path d="M84.27,479.9A27.86,27.86,0,0,0,90,483.75" style="fill:none;stroke:#263238;stroke-linecap:round;stroke-linejoin:round"></path><path d="M80.42,479.06a10,10,0,0,0,4.77,5.9" style="fill:none;stroke:#263238;stroke-linecap:round;stroke-linejoin:round"></path><path d="M77.1,479.39s1.43,4.59,4.84,6.18" style="fill:none;stroke:#263238;stroke-linecap:round;stroke-linejoin:round"></path><path d="M144.38,440.29s5.8,5.63,8.87,8.19,7.86,6,7.86,6-6.66,2.56-7.68,2.9-5.64-1.54-9.22-4.27a29.31,29.31,0,0,1-6.15-6.83Z" style="fill:#BA68C8;stroke:#263238;stroke-linecap:round;stroke-linejoin:round"></path><polygon points="117.38 447.07 118.85 453.53 129.01 449.17 117.38 447.07" style="fill:#BA68C8;stroke:#263238;stroke-linecap:round;stroke-linejoin:round"></polygon><path d="M93.49,431.07a13.68,13.68,0,0,0,4.61.34c1.88-.34,2.56-2.74-.34-6.66a7.47,7.47,0,0,0-9.9-2.22c-2.39,1.53-4.27,2.9-7.34,3.07s-8.54-4.1-13-.85-4.44,4.27-5.29,5.8S55.93,433.28,53,440.8s-.17,13,0,14-6.31,2.22-8.53,9.05,2.73,12.81,9.9,14.17,20.49-2.56,22.71-7,.51-6.32-.51-8A2.58,2.58,0,0,1,78,459.41c.69,0-.34-2.05.35-7.68s2.73-11.62,7.17-13.49,8-1.37,8.88-2.74S93.49,431.07,93.49,431.07Z" style="fill:#a6a6a6;stroke:#263238;stroke-linecap:round;stroke-linejoin:round"></path><path d="M73.44,450.39s-.37-5.72-5-5.91-8.13,3.14-5.17,10,6.83,9.05,3.69,13.66-18.46,10.53-17.35,1.11,10.52-8.12,8.86-5.35-4.43.18-4.43.18" style="fill:none;stroke:#263238;stroke-linecap:round;stroke-linejoin:round"></path><path d="M53,454.8s6.21-5,11,5.56" style="fill:none;stroke:#263238;stroke-linecap:round;stroke-linejoin:round"></path><path d="M62.73,435.25s2.4-2.95,11.45-3.13,6.77,5.67,5.14,6.8" style="fill:none;stroke:#263238;stroke-linecap:round;stroke-linejoin:round"></path><path d="M86.18,429.16s-7.39-3.51-11.63-2-6.28,3.69-8.49,3.88" style="fill:none;stroke:#263238;stroke-linecap:round;stroke-linejoin:round"></path><path d="M113.64,446.6,129,449.16l-17.59-17.92s-9.56,1.53-11.44-.17-11.78-.52-11.78-.52,3.24,3.42.34,4.1-6.49,1.2-9.22,4.27-2.56,5.29-3.24,7.85-3.42,4.61-3.76,7-.17,4.62,5,7.86,16.56,3.41,19.64,2.9a78.68,78.68,0,0,0,14.85-4.95c4.95-2.22,4.61-6.66,4.27-7.85A52.37,52.37,0,0,0,113.64,446.6Z" style="fill:#fff;stroke:#263238;stroke-linecap:round;stroke-linejoin:round"></path><polygon points="113.64 446.6 107.89 438.99 119.44 447.61 113.64 446.6" style="fill:#263238;stroke:#263238;stroke-linecap:round;stroke-linejoin:round"></polygon><path d="M98.61,450.87s.86,3.42-.34,5.47" style="fill:none;stroke:#263238;stroke-linecap:round;stroke-linejoin:round"></path><path d="M104.93,450.19a8.14,8.14,0,0,1,.34,4.44" style="fill:none;stroke:#263238;stroke-linecap:round;stroke-linejoin:round"></path><path d="M90.93,445.07a5.51,5.51,0,0,1-.85,4.44" style="fill:none;stroke:#263238;stroke-linecap:round;stroke-linejoin:round"></path><path d="M90.42,456.34s1.71,3.41.17,5.12" style="fill:none;stroke:#263238;stroke-linecap:round;stroke-linejoin:round"></path><path d="M84.27,447.29a7.84,7.84,0,0,1,1.88-5.47" style="fill:none;stroke:#263238;stroke-linecap:round;stroke-linejoin:round"></path><path d="M85,456.17a6.51,6.51,0,0,0,1.2,5.8" style="fill:none;stroke:#263238;stroke-linecap:round;stroke-linejoin:round"></path><path d="M90.25,433.46s-6-4.44-4.61-6.15,8.71-.17,9.56,1.88a7.22,7.22,0,0,1,.34,4.09" style="fill:#fff;stroke:#263238;stroke-linecap:round;stroke-linejoin:round"></path><polygon points="108.33 420.3 101.32 424.55 121.44 447.44 129.38 445.41 108.33 420.3" style="fill:#BA68C8;stroke:#263238;stroke-linecap:round;stroke-linejoin:round"></polygon><path d="M403.63,451.19s9.36.28,14.18.57S428,452.89,430.57,458s.28,10.21-3.69,11.35-10.77-3.41-15-4.82a54.8,54.8,0,0,0-9.92-2Z" style="fill:#fff;stroke:#263238;stroke-linecap:round;stroke-linejoin:round"></path><path d="M188.61,320.43l2,32.9s-7,9.91-11.35,15.95-17.82,20.26-19.11,21.41a26.87,26.87,0,0,1-5.17,2.73s-8.77-.72-10.49-1.15-4.17.28-5.6.43-3.45-1-3.31.57,1.58,2,3.59,2.44,4-.28,4.75.15a22.29,22.29,0,0,1,2.15,1.72s-7.57,5.08-8,5.8-3.64,4.83-3.06,6.13,1.72.57,2.3-.43a15.56,15.56,0,0,1,2-2.45s-1.15,3-1.58,4.31-.58,2.45.28,2.59,1.73-1.15,1.73-1.15.57,1.87,1.87,1.44.93-1.11,2.8-3.26c1-1.17,4.24-2.49,4.24-2.49s-2.73,4.45-2.59,5,.58,1.58,1.44,1.15,4.16-5.46,4.74-6,5.46-.57,6.61-1.72,6.75-8.62,6.75-8.62,27.73-21.12,32-25.14,11.78-18,11.78-18.68-3.59-46-3.59-46Z" style="fill:#fff;stroke:#263238;stroke-linecap:round;stroke-linejoin:round"></path><path d="M139.33,406.63s5.6-5,8.76-6.18" style="fill:none;stroke:#263238;stroke-linecap:round;stroke-linejoin:round"></path><path d="M139.76,412.38a17.81,17.81,0,0,1,3.24-4.54,78.21,78.21,0,0,1,6.67-4.22" style="fill:none;stroke:#263238;stroke-linecap:round;stroke-linejoin:round"></path><line x1="148.67" y1="408.07" x2="150.93" y2="406.32" style="fill:none;stroke:#263238;stroke-linecap:round;stroke-linejoin:round"></line><path d="M184.3,289.54l3.59,34.19L212,305.34s-6.7-13.12-8.62-18.1c-3.17-8.19-16.38-13.5-24.86-11.06" style="fill:#263238;stroke:#263238;stroke-linecap:round;stroke-linejoin:round"></path></g></svg>